<svg version="1" xmlns="http://www.w3.org/2000/svg" width="320" height="320" viewBox="0 0 240.000000 240.000000"><path d="M32.5 25.9c-1.1.5-2.9 1.9-4 3.1-2 2.2-2 3.6-2 90.1V207l2.8 2.7 2.7 2.8h176l2.7-2.8 2.8-2.7V31l-2.8-2.7-2.7-2.8-86.8-.2c-47.7-.1-87.6.2-88.7.6zm113 32.6c21.3 4.5 36.7 19.1 42 40 1.5 6 2 20.7.9 26.4l-.6 3.1H99.9l.6 2.2c2.2 7.4 9.1 13.3 19.3 16.5 8.1 2.5 35 2.3 47.5-.4l8.7-1.9 1 3.5c2.6 10.1 4.8 20.6 4.4 21.3-.6 1-16.8 4.6-26.8 5.9-13.4 1.7-40.1.7-50.1-2-29.1-7.7-45.4-27.7-45.5-55.6 0-29.5 20.8-53.3 52.1-59.4 7.2-1.4 26.8-1.2 34.4.4z"/><path d="M118.5 81.9c-7.2 1.8-14.2 7.7-16.9 14.3-3 7.2-4.3 6.8 22.9 6.8H149v-2.8c-.1-4.3-3.4-10.6-7.5-14-5.5-4.4-15-6.2-23-4.3z"/></svg>